# xmcd
#
# Track frame offsets:
#  150
#  21892
#  42500
#  63437
#  82472
#  102297
#  117812
#  134587
#  155420
#  174190
#  200720
#  227965
#
# Disc length: 3304 seconds
#
# Revision: 0
# Processed by: cddbd v1.4PL0 Copyright (c) Steve Scherf et al.
# Submitted via: AltoMP3_Maker 3.0
#
DISCID=aa0ce60c
DTITLE=John Lee Sanders - World Blue
DYEAR=1900
DGENRE=
TTITLE0=Let It Roll
TTITLE1=Stars From The Sky
TTITLE2=Right Back Where You Want Me
TTITLE3=Too Close To Be Friends
TTITLE4=Black Dog
TTITLE5=Tomorrow's Checkin' Up On Me
TTITLE6=Who's Cheatin' Who
TTITLE7=Do You Need A Miracle
TTITLE8=Stand By
TTITLE9=Year Of The Dragon
TTITLE10=Cosmic Drum
TTITLE11=Arriverderci
EXTD=
EXTT0=
EXTT1=
EXTT2=
EXTT3=
EXTT4=
EXTT5=
EXTT6=
EXTT7=
EXTT8=
EXTT9=
EXTT10=
EXTT11=
PLAYORDER=
